<svg width="20" height="20" viewBox="0 0 20 20" fill="none" xmlns="http://www.w3.org/2000/svg">
<path d="M1.50782 7.49998C1.50767 7.33587 1.54004 7.17336 1.60307 7.02183C1.66609 6.8703 1.75852 6.73277 1.875 6.61717L6.61719 1.87498C6.85252 1.6431 7.16963 1.51312 7.5 1.51312C7.83038 1.51312 8.14749 1.6431 8.38282 1.87498L12.9688 6.46092C13.8047 6.20311 15.7031 5.88279 17.6875 7.48436C17.8257 7.59355 17.939 7.73087 18.0201 7.8872C18.1011 8.04353 18.148 8.21531 18.1576 8.39114C18.1672 8.56697 18.1393 8.74283 18.0758 8.90706C18.0122 9.07129 17.9145 9.22014 17.7891 9.34373L14.0078 13.125L16.6953 15.8047C16.8127 15.9232 16.8785 16.0832 16.8785 16.25C16.8785 16.4168 16.8127 16.5768 16.6953 16.6953C16.5759 16.8108 16.4162 16.8754 16.25 16.8754C16.0838 16.8754 15.9242 16.8108 15.8047 16.6953L13.125 14.0078L9.35938 17.7734C9.12491 18.0072 8.8077 18.1392 8.47657 18.1406H8.39063C8.21163 18.1264 8.03765 18.0745 7.88012 17.9884C7.72259 17.9022 7.58506 17.7837 7.47657 17.6406C5.94532 15.6015 6.09375 13.9453 6.44532 12.9531L1.875 8.38279C1.75852 8.26719 1.66609 8.12966 1.60307 7.97813C1.54004 7.8266 1.50767 7.66409 1.50782 7.49998ZM7.63282 12.3672C7.72466 12.4615 7.78518 12.5819 7.80615 12.7119C7.82712 12.842 7.80752 12.9753 7.75 13.0937C7.00782 14.5703 7.89063 16.1094 8.47657 16.8906L16.9063 8.46092C15.9609 7.69529 15.0547 7.49998 14.3672 7.49998C13.6797 7.49998 13.125 7.72654 13.0938 7.74998C12.9753 7.80749 12.842 7.8271 12.712 7.80613C12.582 7.78516 12.4616 7.72464 12.3672 7.63279L7.5 2.75779L2.75782 7.49998L7.63282 12.3672Z" fill="#FAFAFA"/>
</svg>
