<svg width="20" height="20" viewBox="0 0 20 20" fill="none" xmlns="http://www.w3.org/2000/svg">
<path d="M15 10.8317H10.8333V14.9983C10.8333 15.2194 10.7455 15.4313 10.5892 15.5876C10.4329 15.7439 10.221 15.8317 9.99996 15.8317C9.77895 15.8317 9.56698 15.7439 9.4107 15.5876C9.25442 15.4313 9.16663 15.2194 9.16663 14.9983V10.8317H4.99996C4.77895 10.8317 4.56698 10.7439 4.4107 10.5876C4.25442 10.4313 4.16663 10.2194 4.16663 9.99834C4.16663 9.77733 4.25442 9.56537 4.4107 9.40909C4.56698 9.25281 4.77895 9.16501 4.99996 9.16501H9.16663V4.99834C9.16663 4.77733 9.25442 4.56537 9.4107 4.40909C9.56698 4.25281 9.77895 4.16501 9.99996 4.16501C10.221 4.16501 10.4329 4.25281 10.5892 4.40909C10.7455 4.56537 10.8333 4.77733 10.8333 4.99834V9.16501H15C15.221 9.16501 15.4329 9.25281 15.5892 9.40909C15.7455 9.56537 15.8333 9.77733 15.8333 9.99834C15.8333 10.2194 15.7455 10.4313 15.5892 10.5876C15.4329 10.7439 15.221 10.8317 15 10.8317Z" fill="#7369F1"/>
</svg>
